<?xml version="1.0" standalone="no"?>
<!DOCTYPE svg PUBLIC "-//W3C//DTD SVG 20010904//EN"
 "http://www.w3.org/TR/2001/REC-SVG-20010904/DTD/svg10.dtd">
<svg version="1.0" xmlns="http://www.w3.org/2000/svg"
 width="953.000000pt" height="1280.000000pt" viewBox="0 0 953.000000 1280.000000"
 preserveAspectRatio="xMidYMid meet">
<metadata>
Created by potrace 1.15, written by Peter Selinger 2001-2017
</metadata>
<g transform="translate(0.000000,1280.000000) scale(0.100000,-0.100000)"
fill="#000000" stroke="none">
<path d="M4021 12785 c-161 -36 -283 -127 -354 -263 -48 -93 -67 -162 -67
-252 0 -97 19 -162 70 -232 49 -69 54 -116 15 -146 -15 -12 -34 -18 -45 -15
-29 8 -24 19 8 18 21 0 28 5 30 23 7 48 -48 71 -81 34 -39 -43 -3 -102 62
-102 45 0 81 32 81 73 0 31 7 33 38 11 72 -50 220 -68 318 -39 54 16 163 88
194 128 52 66 70 190 36 255 -21 40 -34 41 -28 2 3 -24 -4 -39 -36 -75 -44
-50 -50 -73 -41 -148 5 -45 4 -50 -30 -79 -67 -59 -165 -87 -251 -70 l-45 9
42 11 c63 19 134 71 168 126 26 44 30 58 30 125 0 59 -5 84 -21 111 -25 43
-78 80 -113 80 -31 0 -71 -25 -71 -45 0 -10 10 -8 42 7 39 19 44 19 74 4 73
-34 102 -165 56 -252 -44 -86 -137 -144 -230 -144 -77 0 -191 105 -227 209
-36 106 -9 265 63 377 91 141 231 221 402 231 164 10 278 -34 384 -148 39 -43
63 -76 59 -85 -3 -8 0 -14 6 -14 25 0 73 -150 85 -270 5 -48 3 -43 -18 37 -14
51 -37 116 -53 145 -41 75 -123 152 -209 194 -68 34 -81 37 -180 40 -91 3
-115 0 -153 -17 -82 -36 -152 -123 -150 -186 0 -27 1 -27 11 -6 11 22 55 43
92 43 35 0 81 35 114 87 39 61 67 69 167 48 151 -32 280 -156 319 -310 23 -86
20 -405 -3 -405 -3 0 -13 13 -23 29 -52 93 -198 71 -215 -32 -5 -31 -1 -40 25
-67 17 -16 40 -30 52 -30 26 0 70 43 70 69 0 48 -65 68 -93 29 -13 -19 -16
-20 -16 -5 -1 9 9 27 20 38 17 17 29 20 56 16 19 -3 42 -12 50 -19 21 -17 43
-70 43 -102 0 -14 -38 -105 -84 -203 -173 -368 -229 -549 -230 -743 -1 -139
12 -196 71 -319 39 -81 58 -107 137 -186 50 -50 110 -103 133 -119 39 -26 50
-28 148 -30 58 0 105 -3 105 -6 0 -3 -34 -23 -76 -44 -140 -72 -223 -155 -306
-306 -45 -83 -114 -180 -127 -180 -23 0 -67 139 -141 455 -92 388 -154 543
-284 708 -95 122 -270 306 -462 485 -110 103 -194 192 -238 251 -38 50 -77 96
-87 102 -18 9 -19 6 -13 -74 11 -139 -32 -189 -130 -151 -13 5 -16 -1 -16 -26
0 -26 -8 -40 -40 -67 -51 -44 -67 -98 -48 -158 10 -30 11 -46 4 -59 -9 -14 -6
-22 17 -40 38 -31 34 -53 -20 -103 -27 -24 -53 -58 -59 -76 -7 -21 -18 -33
-32 -35 -28 -4 -28 -16 1 -39 13 -10 30 -35 36 -56 9 -25 35 -58 82 -99 73
-66 98 -112 85 -161 -9 -37 -66 -60 -127 -52 -52 7 -58 2 -34 -32 13 -19 13
-25 0 -57 -8 -19 -15 -49 -15 -65 0 -38 27 -118 51 -152 23 -33 33 -75 20 -83
-6 -4 -54 7 -108 23 -54 17 -138 37 -187 46 -112 19 -317 19 -421 -1 -124 -23
-195 -27 -256 -15 -243 51 -378 317 -270 535 57 116 184 198 307 200 71 1 92
-11 75 -42 -8 -15 -7 -23 4 -32 21 -18 19 -36 -7 -54 -16 -12 -18 -16 -7 -16
28 0 59 44 59 83 0 20 3 37 7 37 18 0 107 -67 134 -101 86 -109 91 -243 11
-331 -43 -48 -85 -68 -143 -68 -84 0 -140 48 -141 122 -1 73 61 124 122 101
34 -13 47 -5 22 13 -53 40 -145 -5 -162 -79 -17 -75 21 -144 95 -173 125 -47
266 39 295 182 30 143 -51 287 -200 358 -36 16 -75 42 -88 58 -36 43 -124 79
-206 85 -227 17 -439 -147 -486 -374 -18 -86 -8 -206 23 -283 14 -35 25 -66
22 -68 -2 -2 -16 16 -31 40 -16 23 -29 45 -31 47 -2 2 -6 2 -9 -2 -11 -11 17
-77 54 -126 50 -66 123 -125 207 -168 159 -81 254 -86 510 -25 94 23 198 44
231 48 65 7 222 -8 339 -32 75 -15 225 -61 238 -73 11 -11 -14 -73 -27 -67
-171 76 -289 101 -471 101 -157 -1 -264 -22 -379 -74 -252 -114 -428 -383
-386 -589 35 -167 176 -317 392 -417 83 -38 128 -51 128 -38 0 5 -14 17 -32
27 -85 51 -148 134 -148 197 0 43 27 96 66 127 18 14 31 29 29 33 -3 3 -28 2
-57 -2 -181 -29 -294 81 -266 257 20 130 120 249 269 321 133 65 198 78 384
78 185 0 270 -18 415 -86 70 -33 89 -47 108 -79 l22 -40 -32 8 c-18 4 -89 7
-158 7 -139 -1 -185 -12 -301 -72 -129 -67 -225 -176 -281 -319 -78 -202 -45
-379 96 -520 152 -152 380 -195 569 -106 84 39 136 87 177 163 58 110 52 228
-18 310 -84 98 -231 106 -323 19 -59 -56 -64 -112 -13 -163 31 -31 55 -25 26
7 -33 36 -40 57 -31 89 11 40 36 66 84 88 136 63 275 -35 275 -194 0 -150
-126 -276 -308 -308 -182 -32 -396 80 -475 249 -121 259 67 601 376 684 136
36 378 10 402 -43 6 -13 25 -28 43 -34 45 -15 52 -30 40 -94 -11 -64 -5 -110
21 -143 19 -24 19 -24 -2 -38 -21 -14 -18 -15 36 -21 63 -7 96 -29 125 -84 23
-44 22 -291 -2 -400 -30 -138 -82 -278 -180 -482 -51 -109 -102 -219 -111
-245 -21 -57 -24 -59 -96 -81 -166 -50 -297 -202 -314 -363 l-7 -63 -38 19
c-210 107 -465 144 -620 91 -83 -29 -124 -53 -182 -109 -45 -43 -51 -46 -103
-46 -58 -1 -86 16 -99 60 -7 23 15 54 37 54 7 0 4 -5 -5 -11 -45 -26 5 -84 50
-60 44 23 35 85 -13 97 -100 25 -142 -95 -55 -154 27 -18 46 -23 82 -20 46 3
47 2 40 -22 -4 -14 -7 -61 -7 -105 1 -66 5 -89 27 -130 31 -61 61 -94 118
-131 38 -25 53 -29 116 -29 64 0 77 3 115 30 86 61 110 134 70 214 -26 50 -95
111 -126 111 -41 0 -31 -34 20 -71 114 -82 114 -179 0 -238 -53 -28 -100 -26
-162 4 -123 62 -183 235 -124 358 62 128 229 196 450 184 110 -5 214 -35 331
-95 70 -35 77 -41 105 -99 17 -34 37 -69 45 -78 12 -15 11 -19 -10 -36 -14
-10 -68 -35 -120 -56 -105 -42 -208 -105 -288 -178 -30 -27 -121 -124 -203
-215 -81 -92 -164 -179 -184 -194 -19 -15 -35 -31 -35 -36 0 -5 23 -19 50 -32
32 -15 50 -29 50 -40 0 -19 34 -25 45 -8 20 32 48 -27 44 -92 -2 -27 3 -52 13
-68 37 -56 92 -186 91 -215 0 -16 -10 -55 -21 -85 -24 -61 -28 -165 -11 -240
27 -117 121 -254 222 -323 99 -68 276 -127 380 -127 32 0 34 -2 46 -51 7 -27
11 -52 8 -55 -6 -7 -372 -82 -462 -96 -94 -14 -324 -4 -399 17 -201 56 -356
206 -356 344 0 127 136 242 272 229 83 -8 138 -87 108 -157 -16 -40 -47 -54
-128 -59 -59 -4 -72 -8 -70 -20 7 -37 123 -31 179 9 82 58 75 166 -15 233 -42
32 -144 29 -216 -5 -223 -106 -210 -364 27 -516 105 -67 224 -102 381 -112
l103 -6 -93 -39 c-179 -75 -348 -185 -447 -291 -63 -69 -147 -221 -180 -329
-26 -84 -28 -230 -5 -319 51 -198 200 -375 389 -462 96 -44 160 -58 279 -57
287 0 465 138 497 385 12 91 -8 237 -39 293 -7 12 -11 -5 -14 -63 -5 -92 -25
-135 -79 -171 -28 -20 -44 -23 -97 -20 -34 2 -62 1 -62 -2 0 -3 18 -23 40 -45
101 -99 72 -208 -73 -280 -184 -91 -416 -36 -592 140 -133 133 -196 284 -194
469 0 74 2 86 11 66 65 -153 133 -234 247 -294 90 -46 158 -61 276 -60 155 1
311 60 408 153 87 83 135 205 123 311 -28 234 -268 376 -498 293 -60 -21 -129
-79 -152 -127 -35 -75 -11 -165 56 -206 91 -55 218 -22 218 57 0 34 -14 28
-28 -11 -33 -90 -199 -62 -232 39 -24 73 23 156 117 201 50 25 70 29 143 29
73 0 93 -4 142 -28 72 -35 141 -111 164 -179 26 -79 16 -178 -26 -257 -41 -77
-93 -124 -185 -166 -210 -97 -422 -78 -582 52 -131 106 -181 304 -108 430 42
71 178 202 278 267 155 101 342 177 557 226 52 12 151 35 219 52 67 16 124 28
125 26 1 -2 24 -59 50 -128 100 -260 175 -408 349 -695 129 -213 156 -251 320
-457 222 -278 490 -556 721 -746 35 -29 55 -56 72 -98 28 -70 72 -117 140
-149 47 -22 52 -28 78 -94 15 -38 44 -93 64 -123 21 -29 41 -58 45 -65 5 -7
-30 -31 -100 -68 -228 -120 -366 -230 -424 -337 -32 -61 -33 -68 -36 -187 -2
-68 2 -141 7 -162 13 -47 65 -117 108 -144 24 -16 31 -27 32 -52 2 -171 110
-329 280 -411 104 -49 172 -66 270 -65 94 0 167 21 248 70 181 110 282 290
252 452 -13 75 4 127 46 137 28 7 56 -4 60 -24 1 -7 0 -8 -3 -2 -8 18 -52 11
-63 -10 -9 -17 -6 -25 14 -45 38 -38 86 -15 86 41 0 74 -86 100 -142 43 -24
-23 -33 -27 -39 -17 -5 7 -9 16 -9 21 0 15 -83 97 -129 126 -62 40 -160 65
-220 56 -25 -4 -61 -9 -79 -10 -116 -11 -220 -132 -213 -250 1 -16 5 -14 21
12 13 22 31 35 58 43 57 15 87 43 113 105 20 50 27 56 63 66 79 22 198 -5 264
-58 22 -18 21 -18 -56 -15 -65 3 -88 0 -131 -18 -97 -42 -161 -146 -148 -242
10 -75 74 -132 123 -109 36 16 29 26 -19 29 -61 3 -87 36 -87 108 0 100 64
180 169 210 65 20 127 13 185 -19 30 -16 48 -37 71 -81 27 -54 30 -68 30 -155
0 -84 -4 -104 -27 -154 -59 -126 -217 -242 -366 -268 -75 -13 -194 0 -272 31
-108 43 -215 133 -258 217 -31 60 -55 152 -49 188 3 18 1 37 -3 41 -17 17 9
155 47 262 24 65 25 44 3 -43 -33 -129 -22 -232 36 -347 35 -69 114 -151 172
-178 26 -12 63 -31 82 -42 28 -15 49 -18 105 -15 81 4 139 30 179 78 32 37 28
47 -8 24 -24 -16 -29 -16 -73 -1 -65 22 -87 20 -154 -15 -67 -36 -84 -35 -155
14 -70 48 -118 117 -150 214 -48 147 -23 272 90 463 25 41 56 89 69 105 l25
30 -5 -26 c-12 -65 55 -139 128 -139 67 0 118 75 88 129 -43 76 -160 28 -119
-48 12 -23 49 -28 68 -9 7 7 12 8 12 2 0 -18 -23 -34 -50 -34 -62 0 -100 67
-78 136 13 37 74 95 179 169 l36 26 97 -62 c54 -33 153 -87 220 -118 67 -32
151 -79 187 -106 110 -81 183 -109 378 -145 107 -20 252 -61 277 -77 19 -14
57 -204 57 -283 -1 -183 -112 -367 -311 -517 -77 -58 -77 -58 -45 -61 21 -2
40 -13 55 -32 13 -17 33 -43 46 -60 34 -44 91 -42 151 5 50 40 61 42 84 17 33
-36 23 -63 -87 -267 -34 -63 -31 -107 15 -179 75 -118 82 -150 54 -242 -19
-64 -19 -64 8 -64 44 0 159 102 247 220 74 98 169 304 216 465 58 202 82 560
49 746 -29 170 -97 321 -197 443 -122 150 -137 170 -191 270 -31 56 -74 123
-97 149 -53 60 -172 139 -330 217 -211 106 -290 178 -231 210 29 15 112 12
162 -5 85 -30 291 -165 395 -259 29 -25 61 -46 73 -46 12 0 38 15 58 34 34 31
37 37 37 92 1 54 3 60 28 72 53 25 141 -9 293 -113 98 -67 170 -98 250 -109
28 -4 78 -16 112 -27 l62 -20 39 20 c81 41 119 115 108 210 -9 79 9 95 102 94
53 0 91 -10 182 -44 66 -24 139 -44 172 -47 50 -4 59 -1 81 21 26 25 47 82 47
128 0 41 33 63 93 63 44 1 70 -8 158 -52 114 -57 240 -88 308 -76 40 7 63 22
55 35 -3 5 -65 53 -138 108 -73 54 -178 137 -234 185 -243 206 -377 293 -577
376 -55 23 -101 43 -102 44 -2 2 18 25 43 52 52 56 127 204 143 282 39 191
-19 367 -169 506 -104 96 -221 136 -340 117 -67 -11 -84 -8 -117 22 -25 22
-30 59 -10 75 9 8 12 3 12 -21 0 -27 4 -32 27 -35 20 -2 31 4 44 22 15 24 15
28 0 51 -12 19 -25 25 -51 25 -74 0 -101 -85 -45 -142 34 -34 36 -38 16 -38
-31 0 -135 -111 -168 -178 -28 -56 -33 -77 -32 -137 0 -110 9 -160 38 -209 43
-73 126 -126 198 -126 42 0 44 14 3 22 -14 2 -25 19 -37 57 -22 68 -36 83
-108 115 -57 26 -59 28 -66 72 -10 71 2 148 32 204 35 64 59 87 47 44 -14 -51
-6 -142 17 -189 28 -58 98 -119 155 -135 84 -24 172 7 193 68 11 33 -1 72 -23
72 -10 0 -13 -5 -8 -12 14 -24 2 -73 -23 -96 -48 -42 -164 -24 -227 36 -83 79
-101 234 -36 316 47 60 179 100 282 85 146 -22 292 -158 347 -324 25 -74 29
-190 10 -270 -21 -88 -79 -192 -141 -255 l-58 -59 -50 17 -51 16 48 42 c29 25
61 67 78 101 16 32 34 61 40 65 21 14 37 95 30 151 -8 59 -55 150 -87 167 -28
15 -35 6 -16 -20 13 -19 14 -27 1 -62 -25 -71 -13 -137 33 -190 31 -36 -38
-155 -128 -219 l-29 -21 -123 31 c-137 35 -222 48 -384 60 -93 7 -117 13 -145
32 l-33 24 47 5 c57 7 93 38 110 91 20 68 -22 129 -88 129 -69 0 -105 -81 -54
-122 29 -23 45 -23 70 2 22 22 26 45 10 55 -5 3 -10 11 -10 17 0 6 9 3 20 -7
28 -26 25 -62 -9 -96 -34 -33 -83 -39 -131 -14 -16 8 -91 96 -172 202 -221
289 -370 437 -530 522 -118 64 -209 84 -352 78 -129 -5 -199 -22 -327 -79 -60
-27 -69 -34 -105 -96 -21 -37 -39 -71 -39 -77 -1 -5 -13 -29 -28 -52 -15 -24
-27 -45 -27 -47 0 -3 -5 -17 -10 -32 l-11 -27 -31 49 c-68 107 -149 291 -179
410 -27 105 -30 130 -25 209 7 106 39 243 96 410 22 66 48 150 56 188 9 40 22
71 32 76 9 5 35 39 57 75 22 36 49 69 60 75 11 5 37 17 58 26 31 15 37 22 37
48 0 16 5 81 12 144 12 112 13 115 41 130 l30 15 -7 -99 c-3 -54 -9 -117 -12
-140 l-6 -41 99 37 c54 21 112 45 129 54 43 22 104 93 143 167 34 63 37 65
124 73 26 3 50 6 52 9 2 2 11 46 19 98 25 149 37 173 32 62 l-5 -93 54 -59
c29 -32 59 -68 65 -80 17 -32 24 -15 40 88 7 45 16 85 21 87 11 7 56 -140 70
-228 38 -242 -53 -538 -216 -703 -99 -99 -163 -129 -275 -129 -94 0 -146 20
-165 63 -7 17 -16 21 -30 17 -11 -3 -29 -8 -40 -11 -35 -9 -73 30 -81 82 -4
27 -10 42 -16 36 -13 -13 10 -105 35 -144 31 -47 124 -91 202 -96 328 -21 608
330 608 763 0 126 -13 207 -51 308 -44 119 -33 274 32 420 l25 56 128 -61
c176 -83 315 -180 449 -313 199 -197 285 -365 299 -580 18 -272 -89 -453 -287
-485 -140 -22 -300 51 -344 156 -41 99 21 243 111 260 49 9 96 -11 160 -67 58
-50 87 -59 93 -26 10 52 -118 137 -207 137 -29 0 -65 -7 -80 -15 -46 -23 -100
-95 -118 -154 -48 -165 106 -327 315 -333 181 -5 314 94 374 277 19 59 23 90
22 195 0 109 -4 136 -28 210 -73 220 -220 424 -407 567 -53 40 -57 49 -13 33
61 -24 264 -72 359 -85 117 -17 396 -20 481 -4 32 5 88 19 122 31 73 23 121
20 164 -12 l28 -20 14 35 c8 19 36 55 63 80 54 52 87 57 134 23 26 -19 31 -20
39 -8 5 8 10 27 10 43 0 28 11 32 59 18 24 -6 23 -8 -28 -52 -104 -91 -275
-171 -395 -185 -69 -8 -73 -24 -7 -24 173 0 374 95 542 257 40 39 48 43 71 34
33 -12 38 -7 38 40 0 21 7 44 15 53 19 19 53 8 140 -43 58 -35 62 -36 165 -36
58 0 110 -3 117 -8 18 -12 23 7 12 48 -8 29 -7 47 4 79 9 22 18 60 22 83 4 22
12 49 19 58 11 16 16 16 66 1 63 -19 80 -11 62 29 -7 14 -12 27 -12 28 0 2 18
3 41 4 61 3 105 21 134 54 20 25 23 34 14 50 -21 41 -243 185 -452 295 l-98
51 -4 159 c-2 123 -9 186 -29 279 -54 247 -22 393 112 521 142 137 380 172
560 83 166 -81 291 -287 268 -442 -8 -50 -24 -59 -66 -37 -13 7 -21 6 -30 -5
-18 -22 -57 -18 -74 7 -9 12 -18 19 -21 16 -3 -3 6 -19 20 -36 29 -34 78 -53
119 -45 33 7 33 0 -5 -58 -42 -66 -110 -126 -177 -157 -80 -36 -212 -38 -289
-3 -59 26 -125 91 -148 147 -59 142 51 285 188 244 47 -14 93 -56 102 -93 4
-16 1 -38 -8 -56 -17 -34 -7 -50 14 -24 8 9 14 38 14 64 0 39 -5 53 -30 79
-91 95 -248 72 -305 -45 -18 -37 -21 -59 -18 -114 3 -59 9 -76 40 -123 69
-105 179 -153 327 -146 66 3 99 11 141 31 100 47 177 129 217 228 9 24 40 66
68 94 72 70 98 140 99 265 1 230 -121 419 -339 525 -189 93 -410 99 -573 16
-23 -12 -44 -21 -48 -21 -17 0 36 45 86 74 66 37 47 46 -33 16 -123 -46 -243
-168 -322 -329 -90 -182 -88 -278 13 -661 42 -163 59 -288 48 -364 l-7 -45
-45 21 -44 22 0 82 c0 152 -42 323 -114 465 -124 244 -385 441 -628 474 -27 3
-48 10 -48 14 0 4 5 33 11 65 12 55 13 57 61 78 186 80 285 413 189 640 l-32
77 28 42 c24 36 28 54 29 113 1 54 7 84 27 126 15 30 29 74 33 98 6 39 8 42
23 28 9 -8 44 -27 76 -41 96 -42 136 -89 149 -173 8 -55 32 -112 45 -112 17 0
13 165 -5 240 -8 36 -33 95 -55 133 -31 52 -43 87 -55 155 -17 99 -49 174 -93
216 -29 28 -29 29 -13 54 13 19 17 47 16 107 0 97 -28 161 -102 231 -93 89
-155 124 -316 173 -37 12 -87 34 -110 50 -94 64 -141 81 -329 112 -167 29
-189 30 -270 21 -136 -17 -207 -63 -236 -153 l-12 -36 -72 5 c-47 3 -93 -1
-133 -12 -104 -27 -166 -21 -269 24 -84 38 -205 70 -257 70 -22 -1 -22 -2 7
-23 66 -48 106 -92 136 -146 41 -73 71 -104 120 -126 45 -21 49 -30 16 -39
-46 -11 -137 -131 -137 -180 0 -38 -209 -158 -400 -229 -52 -20 -112 -43 -133
-52 -38 -16 -39 -16 -106 21 -137 74 -188 124 -273 269 -71 123 -92 190 -92
295 -1 113 19 166 84 229 144 140 358 88 377 -91 10 -94 -42 -195 -112 -218
-44 -15 -74 -8 -114 26 -37 31 -40 16 -8 -40 46 -82 155 -105 264 -57 109 48
158 138 151 273 -13 233 -200 364 -412 289 -285 -100 -399 -386 -274 -684 47
-112 150 -241 248 -310 25 -17 24 -17 -8 -2 -66 32 -257 232 -319 335 -12 19
-33 70 -48 113 -49 146 -32 355 41 499 15 29 96 155 180 279 84 124 166 254
183 287 93 185 106 333 37 435 -13 19 -27 49 -31 65 -15 71 -145 172 -221 172
-27 0 -36 7 -55 38 -33 53 -107 130 -153 159 -99 63 -273 88 -405 58z m790
-402 c13 -17 13 -17 -6 -2 -11 9 -25 15 -31 12 -6 -2 -16 8 -22 23 l-12 26 28
-21 c16 -11 35 -28 43 -38z m-55 -23 c64 -16 71 -20 98 -63 21 -34 30 -63 33
-110 13 -153 -63 -311 -303 -632 -195 -261 -243 -352 -265 -504 -15 -109 -7
-226 25 -326 36 -114 93 -198 235 -349 63 -67 40 -58 -68 27 -153 122 -231
283 -231 481 0 161 57 360 181 633 198 437 225 522 215 688 -6 102 -11 140
-30 205 -8 25 -7 24 16 -4 18 -21 42 -33 94 -46z m-495 -299 c-26 -26 -27 -18
-3 14 9 13 18 19 20 15 2 -5 -6 -18 -17 -29z m-2386 -1042 c24 -6 61 -26 82
-43 l37 -33 -70 -6 c-91 -9 -217 -69 -269 -130 -108 -125 -129 -287 -56 -442
49 -105 152 -198 246 -221 l30 -7 -27 -8 c-31 -8 -107 5 -147 25 -40 21 -79
70 -91 115 l-10 39 -47 -14 c-104 -32 -134 -17 -186 94 -30 63 -32 74 -32 177
0 127 20 193 82 284 97 140 291 212 458 170z m1897 -1898 c-48 -43 -106 -99
-130 -125 -24 -25 -58 -54 -75 -63 -73 -37 -195 -144 -276 -243 l-21 -25 16
45 c31 91 56 228 61 333 l6 107 86 0 c88 0 298 23 361 39 19 5 41 9 47 10 7 1
-27 -34 -75 -78z m4994 -55 c149 -48 279 -147 351 -268 73 -121 93 -314 44
-423 -37 -84 -102 -138 -93 -77 13 94 -63 275 -157 370 -120 123 -300 175
-474 139 -109 -22 -212 -74 -280 -141 -55 -55 -110 -139 -122 -189 -4 -15 -12
-30 -17 -34 -7 -4 -9 21 -6 73 5 86 30 148 76 192 30 27 103 62 133 62 23 0
23 5 4 60 -20 57 -20 144 1 165 36 35 161 85 249 99 69 10 213 -4 291 -28z
m-5279 -260 c-29 -41 -74 -112 -101 -159 -27 -47 -84 -130 -127 -184 -43 -54
-101 -128 -130 -165 -28 -38 -52 -68 -53 -68 -6 0 150 304 176 345 51 80 153
199 217 251 36 30 66 54 68 54 1 0 -21 -33 -50 -74z m3858 -161 c269 -70 475
-373 501 -734 7 -90 6 -94 -12 -86 -79 33 -142 53 -307 101 -170 48 -196 59
-251 100 -95 70 -186 110 -358 156 l-47 13 36 47 c33 43 39 46 53 33 25 -23
29 -19 23 24 -5 33 1 49 32 101 21 34 52 103 70 153 26 74 37 93 56 98 44 13
144 9 204 -6z m-301 -576 c48 -17 86 -33 86 -36 0 -11 -72 9 -138 37 -89 39
-55 38 52 -1z m-4169 -161 c-10 -38 -78 -178 -87 -178 -11 0 -38 56 -38 79 0
27 45 78 89 101 45 24 43 24 36 -2z m3559 -437 c7 -66 -6 -178 -23 -210 -10
-17 -51 35 -81 102 l-21 47 50 57 c28 31 51 61 51 65 0 4 4 8 9 8 4 0 11 -31
15 -69z m-150 -148 c13 -27 41 -68 63 -93 36 -42 38 -48 38 -112 0 -81 8 -89
76 -81 l46 5 13 -52 c11 -48 14 -51 37 -45 18 4 34 -2 63 -25 21 -16 57 -38
79 -49 23 -10 48 -27 56 -37 15 -19 15 -19 29 1 73 100 115 135 150 122 7 -3
19 -28 26 -56 11 -46 15 -51 39 -51 15 0 42 -11 60 -24 37 -28 38 -27 -69 -47
-85 -15 -353 -15 -455 0 -120 19 -272 56 -382 94 -111 38 -353 147 -353 158 0
4 52 42 116 84 126 82 300 212 323 238 7 10 15 17 17 17 2 0 15 -21 28 -47z
m-4030 -1043 c7 -17 15 -28 18 -25 3 3 8 -12 12 -34 3 -21 15 -61 27 -88 11
-26 19 -60 16 -75 -3 -24 0 -28 19 -28 29 0 69 -69 79 -136 14 -98 56 -157
150 -211 46 -27 50 -33 63 -86 8 -32 12 -61 8 -64 -9 -10 -155 17 -229 42
-186 63 -317 197 -363 370 -29 107 -10 254 40 312 21 24 81 48 129 52 11 1 23
-10 31 -29z m324 -374 c3 -4 20 -140 17 -144 -6 -7 -83 60 -98 86 -17 31 -17
32 4 53 15 15 28 19 47 14 15 -4 28 -8 30 -9z m2767 -1038 c206 -44 399 -211
690 -593 55 -71 123 -157 152 -191 l53 -61 -87 -6 c-47 -4 -90 -4 -96 0 -5 3
-55 101 -111 217 -127 262 -169 328 -259 412 -121 112 -321 194 -470 194 -57
0 -257 -39 -327 -64 -64 -22 -61 -12 6 22 168 84 293 104 449 70z m-29 -159
c183 -25 352 -135 464 -299 46 -69 214 -389 207 -396 -8 -8 -365 -39 -372 -32
-4 3 1 30 9 59 20 65 20 196 2 265 -33 125 -122 232 -240 289 -179 87 -421 84
-598 -6 -21 -11 -38 -17 -38 -14 0 8 112 61 169 80 59 19 263 63 298 64 12 1
56 -4 99 -10z m13 -190 c86 -29 158 -90 196 -163 25 -50 29 -70 29 -130 -1
-51 -7 -82 -22 -112 -26 -51 -81 -100 -122 -109 -87 -19 -196 35 -238 117 -44
87 -26 154 51 187 l42 18 -37 7 c-51 9 -108 -8 -140 -41 -35 -36 -68 -109 -68
-150 0 -18 -3 -33 -6 -33 -28 0 -314 278 -314 305 0 25 147 100 225 114 101
18 116 19 230 16 81 -2 127 -9 174 -26z m1236 -250 c9 -17 11 -29 5 -29 -6 0
-13 8 -16 18 -3 9 -10 25 -15 36 -7 13 -7 16 0 11 6 -3 18 -19 26 -36z m-1901
-1607 c-74 -51 -200 -157 -285 -242 -114 -112 -154 -175 -197 -310 -12 -36
-25 -78 -31 -95 l-9 -30 -1 29 c-1 21 -17 45 -62 90 l-61 61 4 65 c9 157 136
282 452 445 l129 67 36 -36 c22 -23 32 -39 25 -44z m12 -521 c-19 -21 -56 -34
-56 -20 0 5 8 12 18 15 9 3 24 9 32 14 23 14 25 12 6 -9z m-623 -88 c3 -13 3
-23 1 -23 -6 0 -34 58 -34 72 0 17 26 -22 33 -49z"/>
<path d="M5748 12660 c-58 -31 -151 -124 -183 -182 -15 -29 -29 -54 -30 -56
-2 -2 -24 17 -50 42 -57 56 -159 107 -225 114 l-50 5 0 -77 0 -76 -71 0 -71 0
7 -32 c17 -76 111 -240 156 -272 19 -13 18 -15 -33 -39 -71 -33 -132 -88 -168
-151 -45 -77 -41 -92 28 -112 31 -10 61 -21 65 -24 4 -4 0 -35 -9 -68 -10 -34
-14 -65 -10 -70 14 -13 179 -15 236 -2 30 7 71 21 91 31 l37 18 12 -62 c6 -34
23 -83 36 -110 28 -54 90 -127 109 -127 6 0 29 25 50 55 20 30 40 55 44 55 3
0 28 -16 55 -35 27 -19 53 -35 58 -35 11 0 37 54 54 110 16 53 21 159 10 206
l-7 31 74 -5 c43 -2 98 1 128 8 62 15 149 56 149 70 0 6 -18 34 -41 62 l-41
52 24 21 c13 11 39 32 57 47 l34 26 -39 37 c-57 52 -187 113 -251 117 -29 2
-53 4 -53 5 0 1 9 18 21 37 31 53 49 132 49 216 0 103 -4 108 -77 86 -32 -10
-62 -17 -68 -17 -5 1 -20 27 -31 58 -12 32 -25 58 -30 60 -5 1 -26 -7 -46 -17z"/>
<path d="M2384 12541 c-72 -47 -146 -125 -176 -185 l-22 -45 -53 50 c-73 69
-213 130 -258 112 -13 -5 -15 -17 -9 -74 l7 -69 -70 0 c-38 0 -72 -3 -76 -6
-10 -10 23 -106 58 -169 18 -33 51 -81 73 -106 l40 -45 -49 -24 c-67 -32 -134
-92 -169 -154 -45 -78 -42 -88 35 -110 36 -10 65 -24 65 -30 0 -7 -7 -36 -16
-65 -11 -40 -13 -56 -4 -65 7 -7 51 -11 118 -10 103 1 133 7 235 49 14 6 17 1
17 -31 1 -76 77 -222 130 -249 26 -14 28 -13 69 46 l42 59 32 -24 c18 -13 44
-31 59 -40 l27 -18 21 41 c44 87 60 236 34 305 -4 11 4 12 43 5 102 -20 303
35 303 82 0 4 -19 31 -41 59 -23 29 -37 55 -32 59 33 21 102 77 103 83 0 14
-96 89 -146 114 -30 15 -84 31 -122 37 l-67 11 27 55 c31 64 52 177 43 236 -9
66 -13 68 -84 44 -35 -12 -66 -18 -71 -13 -4 5 -15 33 -25 61 -9 29 -20 55
-25 58 -4 2 -34 -13 -66 -34z"/>
<path d="M8994 10452 c-72 -48 -146 -126 -176 -186 l-22 -45 -45 43 c-61 56
-123 92 -194 110 -84 22 -91 17 -83 -64 l7 -68 -75 -7 c-76 -7 -76 -7 -70 -33
13 -56 85 -191 128 -239 l45 -49 -54 -27 c-71 -34 -130 -89 -166 -152 -45 -77
-41 -89 36 -110 36 -9 65 -22 65 -28 0 -6 -7 -37 -16 -69 -9 -32 -14 -62 -10
-66 4 -4 58 -7 119 -6 108 0 147 8 240 49 14 6 17 2 17 -29 0 -81 72 -221 129
-251 28 -14 28 -14 66 40 21 30 42 55 48 55 5 0 32 -16 58 -35 27 -19 52 -35
55 -35 12 0 53 109 64 170 11 59 9 106 -6 167 -6 20 -4 21 38 11 81 -19 233
11 285 56 l27 24 -43 57 c-24 32 -39 60 -34 64 51 34 103 76 103 82 0 4 -19
24 -42 44 -60 52 -170 103 -237 111 l-57 6 28 57 c42 86 58 243 29 290 -6 9
-25 6 -74 -12 l-66 -24 -22 61 c-12 34 -25 64 -29 69 -3 4 -33 -10 -66 -31z"/>
<path d="M1088 7562 c-84 -48 -191 -168 -214 -239 0 -2 -22 17 -47 42 -52 49
-143 99 -208 114 -63 14 -69 9 -69 -69 l0 -67 -71 -7 -71 -7 6 -30 c11 -55 80
-181 128 -234 l48 -52 -45 -17 c-85 -33 -205 -165 -205 -227 0 -24 6 -28 65
-45 36 -10 65 -21 65 -24 0 -3 -9 -33 -19 -67 -11 -35 -15 -65 -10 -69 5 -3
40 -8 77 -11 80 -7 188 10 245 38 22 10 41 18 42 16 1 -1 7 -29 14 -62 16 -76
64 -167 108 -205 19 -17 37 -30 41 -30 4 0 25 27 47 59 l40 59 59 -41 c57 -38
60 -39 73 -21 42 58 69 251 43 318 -9 25 -8 25 23 18 92 -20 244 6 302 53 l28
22 -43 57 c-23 31 -40 59 -38 62 3 3 29 23 58 44 l53 40 -44 41 c-57 52 -169
106 -241 114 l-56 7 23 47 c13 26 29 67 34 91 14 58 14 176 1 200 -10 19 -12
19 -76 -4 l-65 -24 -13 32 c-7 17 -18 48 -25 69 -7 20 -13 37 -14 37 -1 0 -23
-13 -49 -28z"/>
<path d="M734 5731 c-74 -50 -124 -101 -166 -172 l-34 -56 -44 44 c-52 52
-169 112 -225 116 l-40 2 -3 -72 -3 -73 -69 0 c-70 0 -70 0 -70 -28 0 -40 70
-178 123 -243 l45 -56 -54 -26 c-30 -15 -75 -45 -99 -68 -46 -43 -101 -139
-92 -162 3 -7 32 -22 66 -32 68 -20 69 -23 46 -99 -11 -35 -12 -53 -5 -60 7
-7 55 -11 118 -10 102 1 135 8 233 48 13 6 17 -2 22 -44 8 -64 44 -144 87
-193 57 -66 64 -65 110 3 l41 61 57 -40 c66 -48 71 -46 103 44 25 73 35 177
20 229 -6 22 -9 41 -8 42 1 1 25 -2 52 -7 94 -18 295 35 295 78 0 8 -16 34
-35 57 -19 24 -35 48 -35 54 0 7 23 28 50 49 28 20 50 40 50 44 0 12 -76 76
-121 102 -50 29 -139 57 -181 57 -29 0 -35 8 -19 26 5 5 19 36 31 69 17 45 23
83 24 152 1 52 -4 96 -10 102 -7 8 -29 5 -73 -10 -72 -25 -71 -26 -98 59 -9
28 -20 52 -24 52 -4 0 -33 -18 -65 -39z"/>
<path d="M7954 5621 c-74 -50 -113 -91 -157 -163 l-34 -57 -38 39 c-54 55
-163 110 -231 117 l-56 6 4 -74 3 -74 -73 -3 -72 -3 6 -27 c11 -54 85 -191
129 -240 l45 -50 -55 -26 c-65 -30 -149 -110 -175 -169 -30 -65 -27 -74 34
-91 30 -9 59 -16 65 -16 15 0 14 -22 -5 -87 -9 -30 -13 -57 -10 -60 3 -4 42
-8 86 -11 90 -5 186 10 242 39 43 22 42 22 52 -48 4 -24 17 -67 30 -96 23 -54
93 -137 114 -137 7 0 28 25 48 55 20 30 40 55 43 55 3 0 30 -16 59 -36 65 -43
72 -39 103 54 23 70 30 169 16 234 -8 38 -8 38 18 28 35 -13 112 -13 177 1 62
13 148 54 148 71 0 6 -18 35 -40 64 l-40 53 55 42 c30 23 55 45 55 50 0 15
-103 91 -156 116 -28 13 -78 28 -110 34 -32 6 -60 12 -61 13 -2 1 6 20 16 42
30 63 44 124 45 206 1 103 -6 109 -87 81 -70 -25 -68 -26 -94 55 -9 28 -22 52
-29 52 -6 0 -38 -18 -70 -39z"/>
<path d="M1414 4883 c-289 -272 -212 -796 160 -1081 79 -60 103 -87 128 -141
80 -173 -64 -391 -286 -432 -108 -20 -239 20 -296 90 -36 43 -37 49 -6 57 13
3 26 14 29 25 4 14 14 19 39 19 25 0 29 3 18 10 -22 14 -72 11 -94 -5 -33 -25
-39 -18 -33 43 6 73 33 127 87 176 56 50 103 69 172 68 91 0 148 -47 148 -121
0 -86 -166 -136 -186 -56 -3 14 -10 25 -15 25 -12 0 -11 -14 2 -44 27 -59 120
-57 182 4 31 32 37 44 37 80 0 88 -67 143 -174 143 -147 0 -288 -127 -287
-260 0 -246 0 -244 28 -296 64 -116 219 -188 371 -173 150 16 301 97 375 203
35 49 47 50 23 2 -20 -41 -11 -52 15 -19 51 64 64 109 64 230 0 103 -3 121
-26 171 -35 73 -80 117 -215 211 -167 116 -213 167 -294 327 -66 131 -89 222
-90 346 0 152 46 275 142 381 27 28 48 55 48 58 0 15 -19 3 -66 -41z m382
-1280 c26 -60 16 -111 -29 -160 -11 -13 -19 -24 -16 -26 102 -72 108 -83 73
-147 -74 -136 -262 -240 -430 -240 -174 0 -321 106 -332 238 -3 28 -1 52 3 52
4 0 27 -18 52 -40 146 -128 377 -113 530 37 88 86 132 218 105 317 l-11 38 21
-18 c11 -11 27 -33 34 -51z"/>
<path d="M2964 3682 c-72 -48 -146 -126 -176 -186 l-22 -45 -45 43 c-61 56
-123 92 -194 110 -84 22 -91 17 -83 -66 l7 -68 -38 0 c-21 0 -55 -3 -75 -6
-35 -6 -37 -9 -32 -33 13 -56 85 -190 128 -238 l45 -49 -54 -27 c-71 -34 -130
-89 -166 -152 -45 -78 -41 -90 36 -110 36 -10 65 -23 65 -28 0 -6 -7 -37 -16
-69 -9 -32 -14 -62 -10 -66 4 -4 58 -7 119 -6 89 0 124 5 172 22 33 12 64 23
69 25 6 1 13 -20 17 -46 15 -95 75 -204 128 -232 28 -14 28 -14 66 40 21 30
42 55 48 55 5 0 32 -16 58 -35 27 -19 52 -35 55 -35 12 0 53 109 64 170 11 59
9 106 -6 166 -5 21 -4 21 43 12 86 -17 228 11 280 56 l27 24 -43 57 c-24 32
-39 60 -34 64 51 34 103 76 103 82 0 4 -19 24 -42 44 -60 52 -170 103 -237
111 l-57 6 28 57 c42 86 58 243 29 290 -6 9 -25 6 -73 -13 l-66 -24 -23 61
c-12 34 -25 65 -29 70 -3 4 -33 -10 -66 -31z"/>
<path d="M4921 1229 c-68 -46 -133 -115 -163 -174 -11 -22 -21 -41 -23 -42 -1
-2 -22 17 -47 41 -61 58 -166 110 -227 110 l-46 1 0 -70 0 -70 -73 -3 -72 -3
6 -27 c13 -57 83 -189 127 -238 51 -57 55 -64 32 -64 -53 0 -175 -102 -214
-178 -34 -67 -30 -79 37 -98 31 -9 61 -20 65 -24 5 -4 1 -35 -9 -69 -9 -34
-14 -65 -10 -69 4 -4 60 -7 124 -7 103 0 124 4 180 27 l62 26 6 -27 c18 -90
28 -121 52 -164 25 -47 83 -107 102 -107 5 0 26 25 46 55 20 30 40 55 43 55 3
0 30 -16 59 -36 66 -44 74 -39 104 60 22 72 29 165 16 223 l-7 31 72 -5 c49
-4 92 0 134 11 75 19 143 52 143 69 0 6 -18 35 -40 62 l-40 50 23 20 c13 11
39 32 58 47 l34 28 -45 40 c-59 53 -150 98 -227 111 -63 11 -71 17 -54 35 24
24 53 143 54 222 1 107 -4 112 -89 85 l-65 -22 -9 23 c-4 12 -14 41 -21 64 -7
23 -18 42 -24 42 -7 0 -40 -18 -74 -41z"/>
</g>
</svg>
